<?xml version="1.0" encoding="utf-8"?>
<!-- Generator: Adobe Illustrator 19.1.0, SVG Export Plug-In . SVG Version: 6.00 Build 0)  -->
<svg version="1.1" id="Layer_1" xmlns="http://www.w3.org/2000/svg" xmlns:xlink="http://www.w3.org/1999/xlink" x="0px" y="0px"
	 viewBox="-217 219 64 64" style="enable-background:new -217 219 64 64;" xml:space="preserve">
<style type="text/css">
	.st0{fill:url(#SVGID_1_);}
	.st1{opacity:0.23;fill:#590707;enable-background:new    ;}
	.st2{opacity:0.13;fill:#590707;enable-background:new    ;}
	.st3{opacity:0.44;fill:#590707;enable-background:new    ;}
	.st4{opacity:0.33;fill:#590707;enable-background:new    ;}
	.st5{opacity:0.1;fill:#590707;enable-background:new    ;}
	.st6{opacity:0.32;fill:#590707;enable-background:new    ;}
</style>
<linearGradient id="SVGID_1_" gradientUnits="userSpaceOnUse" x1="-185" y1="219" x2="-185" y2="283">
	<stop  offset="0" style="stop-color:#FF7552"/>
	<stop  offset="0.1565" style="stop-color:#FB7251"/>
	<stop  offset="0.3241" style="stop-color:#EE6A4D"/>
	<stop  offset="0.4969" style="stop-color:#D85D46"/>
	<stop  offset="0.6732" style="stop-color:#BA4B3C"/>
	<stop  offset="0.8504" style="stop-color:#943430"/>
	<stop  offset="1" style="stop-color:#6E1C24"/>
</linearGradient>
<rect x="-217" y="219" class="st0" width="64" height="64"/>
<g>
	<g>
	</g>
	<g>
		<path class="st1" d="M-206,272c0.1,0,0.5-0.2,0.5,0.1c0,0.3-0.2,0.9,0.2,1.2c0.4,0.4,0.5,0.5,0.7,0.3c0.1-0.2,0.3-0.8,0.5-0.4
			c0.2,0.3,0.4,0.4,0.5,1c0.1,0.6,0.2,0.7-0.1,0.9c-0.3,0.1-0.3,0.1-0.3,0.7c0.1,0.6,0.2,1.3,0,1.5c-0.3,0.2-0.1,0.5-0.4,0.6
			c-0.3,0.1-0.5,0.1-0.7,0.3c-0.2,0.2,0,0.6-0.2,0.7c-0.2,0-0.3-0.6-0.5-0.7c-0.2-0.1-0.7,0.2-0.8,0c-0.2-0.2-0.2-0.6-0.5-0.5
			c-0.3,0.1-0.4,0.3-0.5,0.2c-0.1-0.1-0.1-0.6-0.3-0.9c-0.2-0.3-0.4-0.9-0.6-1.4s-0.5-1.8,0.2-2.5C-207.8,272.1-207.3,271.5-206,272
			z"/>
		<path class="st2" d="M-218.5,230.3c0.2,0.7,0.5,1.2,0.8,1.6c0.8,1.1,3,3.7,3.2,3.8c0.2,0.1,1.1-0.3,1.5-0.4
			c0.4-0.2,0.2-1.4,0.1-1.9c-0.1-0.5-0.1-1.5-0.2-2c0-0.5,0.6-1.1,0.9-1.5c0.3-0.4-0.9-0.4-1.1-0.7s0.1-1,0.2-1.8
			c0.1-0.8,1.5-1.3,2-1.7c0.5-0.4,1.8-1,2.2-1.3c0.5-0.3,0.9-0.7,1.3-0.6c0.4,0,0.4,0.2,1,0c0.6-0.3,0.5-0.3,1-0.3s0.6,0.1,0.8,0.5
			c0.3,0.4,0.6,0.2,0.9,0.1c0.3,0,0.6-0.2,1.1,0c0.5,0.2,0.1,0.5,0.7,0.7c0.6,0.2,0.4,0.1,0.8,0.5c0.4,0.4,0.6-0.5,1-0.9
			c0.4-0.4,0.6-1.2,0.5-1.8c0-0.6-1.2-0.4-1.8-0.6c-0.4-0.1-0.4-0.5-0.6-1.4c-0.2-0.9,0-1.2,0-1.6s-0.5-1.2-0.5-1.2
			c-0.1-0.3-0.3-0.6-0.5-0.8c-3,1.3-8.5,0.4-11,2.6C-216.9,221.9-216.7,227.1-218.5,230.3z"/>
		<path class="st3" d="M-171.8,228.8c-1.7,0.7-0.7,3.5,0.2,2.9C-170.8,231.1-169.8,228-171.8,228.8z"/>
		<path class="st4" d="M-216.1,267c-1.4-0.7-0.1,4.2-0.9,1.9v1.1c0.1,1.8,1.2,1.6,2.6,0.5C-212.9,269.4-214.6,267.7-216.1,267z"/>
		<path class="st5" d="M-210.2,271.1c-0.2-0.4-1.6-1-1.1-1.6c0.5-0.5,2-0.8,1.4-2.6c-0.6-1.8-0.8-2.3-1.5-2.3
			c-0.7,0-2.1,0.5-2.1-0.7c-0.1-1.2-0.5-1.9,0-3.1c0.5-1.3,0.5-1.8,1.7-1.1c1.2,0.7,1.2,0.8,1.9-0.3c0.7-1.1,1.4-2.7,2.4-2.3
			s1.1-0.4,2.2,0.3c1.1,0.7,1.7,1.4,2.4,1.5c0.7,0.2,1-1,1.7-0.5c0.7,0.6-0.1,1.8,0.3,2.5c0.4,0.7,2.2,1.6,2.3,2.3
			c0.1,0.8-0.3,1.6,0.5,2.2c0.9,0.6,1.6,0.5,1.7,1c0,0.5-0.6,1.3-0.5,2.3c0,1-0.2,2.7-0.4,3.9c-0.3,1.2-1.5,4.2-4.5,3.6
			C-205,275.7-207.2,275.5-210.2,271.1z"/>
		<path class="st6" d="M-160.2,229.6c-2.2,0.1-9.6,4.5-10.1,5.4c-0.3,0.6-0.9,2.3-1.4,3.7c0.2,0.6,0.4,1.3,0.8,1.7
			c0.4,0.4,0.7,0.7,1,1c-0.3,1.2-0.5,2.7-0.4,3.5c0.1,1.5-1.3,2.1-0.8,3.6s1.3,4.1,2.1,2.6s0.6-3.3,0.6-3.3s-0.6-3.8-0.7-4.8
			c0-0.3-0.1-0.6-0.1-1c0.3,0.2,0.5,0.3,1.1,0.1c1.1-0.5,3.6,0.8,4.2,2.1c0.5,1.1,0.4,2,0.9,2.5c0.2,2.5,0.7,8.8,0.7,12.9
			c0,5.3,0.6,10.6-0.6,11.8c-1.1,1.2-2.1,2.7-0.4,3.5s2.5-1.4,2.4-4.1c-0.1-2.3-0.4-19-0.5-23.6c0.9,0.2,1.7,0.3,1.7,0.3
			s0.4,0.5,1.7,0.6c0.8,0.1,1.8,0,2.4-0.2c0,0.4-0.1,0.8-0.1,1.4c0,2.1,0.7,3.6,0.7,3.6s0.7,2.1,0.3,2.6c-0.4,0.5-0.4,2.1,0.4,2.3
			s2.4,0,2.1-1.4c-0.3-1.4-1.3-3-1.3-4.7c0-1.5,0.3-3.3,0.6-4.8c0.3-0.2,0.5-0.4,0.7-0.6c0.7-1.1,1.7-2.1,2.2-2.7
			c0.5-0.6,0.4-0.8,1.4-0.8l0.5-0.4c0.3-3.1,0.5-6.7-0.8-9.2c-1.5-3-5-7.5-7.3-6C-157.4,229-159.1,229.5-160.2,229.6z"/>
	</g>
</g>
</svg>
